<?xml version="1.0" standalone="no"?>
<!DOCTYPE svg PUBLIC "-//W3C//DTD SVG 20010904//EN"
 "http://www.w3.org/TR/2001/REC-SVG-20010904/DTD/svg10.dtd">
<svg version="1.0" xmlns="http://www.w3.org/2000/svg"
 width="500.000000pt" height="350.000000pt" viewBox="0 0 500.000000 350.000000"
 preserveAspectRatio="xMidYMid meet">

<g transform="translate(0.000000,350.000000) scale(0.100000,-0.100000)"
fill="#000000" stroke="none">
<path d="M2036 3457 c-32 -39 -43 -45 -113 -61 -208 -49 -499 -175 -673 -291
-365 -245 -601 -583 -666 -955 -24 -142 -15 -371 20 -505 32 -120 89 -251 155
-360 56 -91 58 -88 -51 -99 -76 -7 -206 -48 -258 -81 -19 -12 -42 -25 -50 -28
-8 -4 -3 -5 12 -3 16 2 28 -1 28 -5 0 -5 7 -9 15 -9 8 0 15 -4 15 -10 0 -5 6
-10 13 -10 6 0 39 -18 72 -40 33 -22 63 -40 68 -40 4 0 13 -5 20 -10 24 -20
83 -56 146 -89 36 -18 71 -39 78 -46 7 -7 35 -23 62 -36 28 -12 48 -26 44 -32
-3 -5 4 -6 17 -2 16 5 20 4 15 -5 -5 -8 -2 -10 11 -6 88 26 268 34 299 12 91
-62 381 -191 413 -183 15 3 15 5 -3 12 -339 132 -525 246 -721 440 -198 197
-322 412 -384 665 -30 119 -37 325 -16 451 95 582 601 1061 1311 1243 32 8 61
14 63 11 12 -12 -23 -44 -55 -49 -75 -14 -281 -89 -398 -146 -269 -130 -473
-294 -634 -510 -282 -377 -329 -848 -126 -1261 149 -303 401 -541 756 -714
126 -61 357 -146 395 -144 18 0 18 1 -1 9 -11 4 -72 25 -136 45 -420 131 -804
434 -983 775 -302 576 -103 1241 492 1648 186 127 441 240 643 286 l27 6 -10
-43 c-17 -75 1 -159 60 -269 1 -3 -12 -9 -30 -13 -51 -11 -222 -81 -296 -122
-430 -233 -669 -631 -622 -1033 55 -481 484 -881 1068 -999 250 -51 508 -49
751 5 628 141 1052 580 1051 1092 -1 463 -351 873 -895 1047 -66 21 -121 39
-122 40 -2 1 6 18 17 39 32 64 43 139 31 209 -6 33 -10 62 -8 63 6 6 235 -58
322 -91 1069 -401 1390 -1470 660 -2201 -208 -208 -462 -357 -772 -454 -57
-17 -103 -34 -103 -37 0 -7 49 5 133 32 591 189 1016 606 1129 1109 28 123 30
345 4 466 -109 511 -524 927 -1116 1120 -80 26 -173 53 -208 60 -43 9 -66 19
-73 32 -6 11 -9 21 -7 22 7 6 145 -26 257 -60 633 -192 1083 -633 1197 -1174
23 -112 23 -333 0 -445 -71 -339 -260 -627 -561 -854 -149 -113 -314 -206
-475 -266 -82 -31 -113 -50 -65 -40 72 16 321 129 388 177 27 19 38 20 131 15
55 -4 117 -11 136 -17 37 -11 74 -5 65 11 -4 5 2 9 13 9 11 0 31 9 46 21 14
11 26 17 26 14 0 -4 17 7 38 23 20 16 73 48 117 71 44 24 87 49 96 57 8 8 19
14 23 14 4 0 31 16 60 35 29 19 58 35 64 35 6 0 15 7 20 16 5 9 23 17 40 18
51 2 47 13 -14 44 -76 38 -174 68 -249 77 -115 12 -110 6 -61 83 139 215 200
423 201 677 0 216 -37 368 -135 565 -221 440 -708 780 -1288 900 -82 17 -97
24 -126 55 -18 19 -41 35 -51 35 -13 0 -5 -13 29 -50 69 -74 91 -128 91 -225
0 -101 -30 -169 -108 -243 -101 -95 -214 -136 -372 -136 -120 0 -175 13 -277
66 -219 115 -273 361 -116 533 41 45 46 55 30 55 -12 0 -35 -18 -56 -43z m983
-487 c185 -59 351 -149 492 -267 218 -181 350 -411 377 -658 11 -91 6 -112
-22 -102 -13 5 -16 26 -17 119 l0 113 -51 33 c-45 29 -58 32 -124 32 l-74 0 0
64 c0 62 -2 67 -52 135 l-53 71 -130 0 -131 0 -36 -47 c-20 -27 -46 -58 -57
-70 -20 -21 -21 -33 -21 -238 l0 -216 -27 3 c-25 3 -29 8 -34 54 -8 61 -38
132 -79 184 l-30 38 0 161 c0 90 4 161 9 161 16 0 62 -62 68 -91 3 -16 9 -26
14 -23 12 7 11 61 -1 85 -16 30 9 24 53 -12 20 -17 37 -25 37 -19 0 24 -22 51
-58 69 -31 17 -33 20 -14 21 12 0 39 -7 58 -15 26 -11 35 -11 32 -2 -7 21 -71
47 -118 47 -57 0 -36 17 33 26 32 5 44 10 35 15 -21 14 -80 10 -121 -9 l-39
-17 -38 37 c-38 36 -89 56 -110 43 -6 -4 12 -18 40 -32 55 -27 61 -42 9 -24
-45 15 -92 14 -115 -4 -18 -15 -18 -15 6 -14 14 1 41 1 60 0 34 -2 34 -3 -20
-21 -30 -11 -56 -20 -56 -20 -1 0 -4 -7 -7 -15 -5 -11 -1 -12 16 -6 12 5 40
11 62 15 l40 8 -26 -29 c-30 -31 -44 -68 -31 -77 5 -3 14 5 20 18 11 24 89 69
104 60 9 -6 11 -267 2 -277 -3 -3 -30 9 -60 27 -30 18 -86 44 -124 57 -62 21
-70 27 -70 49 0 20 -17 36 -95 87 l-94 62 -93 -63 c-73 -49 -94 -68 -96 -89
l-3 -26 -46 28 -45 28 -119 -74 -119 -75 0 -128 c0 -141 -8 -222 -21 -214 -5
3 -9 52 -9 108 l0 104 -113 71 c-63 39 -119 71 -125 71 -9 0 -12 32 -12 110 0
107 1 110 23 110 35 -1 102 -35 125 -65 l22 -28 0 28 c0 18 -11 37 -32 57
l-33 31 50 -8 c28 -4 58 -11 68 -17 10 -5 21 -7 24 -4 9 9 -61 46 -89 46 -15
0 -30 5 -33 10 -4 6 15 10 50 10 31 0 54 4 51 9 -11 17 -83 21 -135 7 -60 -15
-55 -5 15 30 l49 23 -33 1 c-37 0 -98 -28 -125 -57 -17 -20 -18 -20 -74 -1
-38 13 -68 17 -94 13 -56 -10 -56 -21 -1 -23 26 0 58 -5 72 -11 22 -8 18 -10
-28 -10 -55 -1 -114 -20 -127 -42 -6 -9 -2 -10 16 -5 13 4 42 9 64 12 l40 5
-42 -19 c-36 -18 -63 -46 -63 -67 0 -4 12 2 28 12 25 17 77 43 87 43 2 0 -3
-13 -12 -28 -11 -19 -14 -37 -9 -57 l7 -29 19 41 c15 35 44 63 63 63 3 0 5
-49 6 -108 2 -124 7 -115 -101 -181 l-67 -40 -3 112 -3 112 -60 0 -60 0 -3
-222 -2 -223 -105 0 -105 0 0 44 c0 69 29 202 61 285 51 128 116 227 224 339
154 161 331 272 562 352 l92 32 50 -41 c93 -78 244 -131 376 -131 135 0 298
59 385 138 25 23 54 41 65 42 11 0 62 -14 114 -30z m-389 -571 c0 -17 -4 -19
-22 -13 -56 17 -254 4 -321 -22 -14 -5 -17 0 -17 25 l0 31 180 0 c175 0 180
-1 180 -21z m-1220 -235 l0 -215 -47 3 -48 3 -3 200 c-1 110 0 205 2 212 3 8
23 13 51 13 l45 0 0 -216z m1254 180 c132 -34 264 -130 318 -232 27 -49 52
-147 42 -163 -3 -5 -122 -9 -275 -9 -300 0 -319 5 -192 50 39 14 74 28 77 31
3 3 -26 15 -65 28 -39 13 -67 27 -63 31 5 5 34 15 64 23 l55 14 -47 13 c-57
15 -61 27 -13 36 19 3 35 9 35 13 0 4 -21 17 -47 28 l-48 21 88 1 87 1 0 45 0
45 -185 0 -185 0 0 -45 0 -45 86 0 c82 0 85 -1 82 -21 -2 -17 -16 -26 -58 -38
l-54 -17 42 -12 c23 -7 40 -16 38 -21 -3 -4 -30 -13 -61 -20 -31 -7 -55 -15
-52 -17 2 -2 35 -15 72 -27 38 -13 70 -28 72 -34 2 -6 -17 -16 -42 -22 -26 -6
-68 -23 -94 -37 -46 -24 -54 -24 -212 -22 l-164 3 2 48 c5 164 198 332 422
367 71 11 199 4 275 -16z m916 -40 l0 -65 -27 3 c-26 3 -28 7 -29 48 0 32 -5
45 -15 45 -10 0 -15 -14 -17 -47 -3 -44 -6 -48 -58 -84 l-54 -37 0 -109 0
-108 -120 0 -120 0 0 210 0 210 220 0 220 0 0 -66z m-912 -26 l-3 -33 -170 0
-170 0 -3 33 -3 32 176 0 176 0 -3 -32z m-614 -47 c-33 -32 -68 -75 -79 -95
-11 -20 -22 -36 -25 -36 -3 0 -4 43 -2 95 l3 95 81 0 81 0 -59 -59z m1779 -70
c4 -1 7 -48 7 -106 l0 -105 -222 2 -223 3 -3 99 c-1 55 1 102 7 105 7 4 375 6
434 2z m-1943 -111 l0 -100 -225 0 -225 0 0 100 0 100 225 0 225 0 0 -100z
m561 -98 c-19 -36 9 -65 104 -105 93 -40 152 -85 162 -125 4 -16 -3 -34 -24
-60 -63 -78 -82 -141 -59 -195 19 -47 68 -71 204 -102 216 -49 279 -81 303
-152 12 -38 16 -196 5 -231 -9 -29 -199 -90 -360 -115 l-87 -14 8 41 c4 22 8
79 8 126 0 75 -4 91 -30 139 -35 64 -98 114 -208 166 -61 29 -81 43 -94 69
-14 31 -14 38 1 83 12 37 36 68 96 129 67 68 80 86 80 113 0 47 -12 63 -90
121 -38 28 -70 59 -70 68 0 17 38 62 52 62 5 0 4 -8 -1 -18z m-72 -13 c-16
-31 1 -61 63 -107 120 -89 122 -115 15 -216 -81 -75 -107 -120 -107 -183 0
-56 21 -78 121 -128 158 -80 222 -161 222 -285 0 -36 -5 -88 -12 -117 l-13
-51 -75 -8 c-75 -7 -301 2 -329 13 -12 4 -9 12 11 39 39 51 75 135 75 175 0
50 -39 83 -174 149 -125 61 -166 101 -166 160 0 96 57 156 255 266 92 51 145
99 145 132 0 16 -14 38 -40 62 -46 43 -53 80 -18 104 31 22 41 20 27 -5z
m-212 -294 c0 -8 -4 -12 -9 -9 -5 3 -6 10 -3 15 9 13 12 11 12 -6z m604 -35
c6 0 7 5 4 10 -4 7 2 9 19 4 16 -4 32 -1 41 6 9 7 18 11 21 8 7 -8 -86 -65
-139 -85 -25 -9 -49 -14 -53 -10 -10 10 30 71 56 84 20 10 26 10 33 -2 4 -8
13 -15 18 -15z m-1176 -440 c3 -6 -1 -7 -9 -4 -18 7 -21 14 -7 14 6 0 13 -4
16 -10z m1862 -5 c0 -8 -4 -12 -9 -9 -5 3 -6 10 -3 15 9 13 12 11 12 -6z
m-1861 -53 c-4 -3 -14 2 -24 12 -16 18 -16 18 6 6 13 -6 21 -14 18 -18z m1732
11 c-3 -18 4 -20 35 -8 9 4 17 3 17 -3 0 -6 -10 -12 -22 -14 -13 -2 -22 -9
-21 -16 3 -10 -59 -46 -124 -73 -23 -8 -23 -7 -22 59 1 37 4 55 6 41 4 -25 43
-50 43 -28 0 5 -4 9 -10 9 -5 0 -10 6 -10 13 0 8 15 13 42 13 23 1 44 7 46 13
6 18 23 13 20 -6z m82 7 c0 -5 -5 -10 -11 -10 -5 0 -7 5 -4 10 3 6 8 10 11 10
2 0 4 -4 4 -10z m-1184 -9 c-10 -16 19 -30 57 -27 26 2 37 -1 37 -10 0 -8 -5
-14 -11 -14 -5 0 -7 -5 -4 -10 4 -6 1 -17 -5 -25 -10 -11 -10 -15 -1 -15 15 0
-35 -92 -68 -126 -27 -27 -21 -28 -171 8 -85 20 -232 76 -238 90 -2 5 -8 6
-12 3 -10 -6 -123 54 -128 67 -2 5 -8 6 -12 3 -5 -3 -11 -1 -14 4 -4 5 3 13
15 16 12 4 24 3 28 -3 4 -7 16 -6 36 3 29 12 29 12 -20 10 -27 -1 -57 -5 -66
-9 -9 -4 -21 -1 -28 8 -10 12 -4 14 46 12 32 -1 63 1 68 5 14 10 99 -7 103
-20 2 -6 22 -11 44 -11 32 0 39 3 34 15 -3 8 -2 15 2 16 67 4 102 3 102 -3 0
-4 9 -8 20 -8 11 0 20 5 20 11 0 6 8 8 18 5 9 -3 41 -8 70 -10 40 -4 54 -1 59
10 3 8 9 14 15 14 5 0 7 -4 4 -9z m50 -3 c4 -7 3 -8 -4 -4 -7 4 -12 2 -12 -3
0 -6 -5 -11 -11 -11 -8 0 -8 5 1 15 15 18 17 18 26 3z"/>
<path d="M3344 2326 c-3 -7 -4 -40 -2 -72 2 -44 7 -59 18 -59 23 0 27 130 5
139 -9 3 -18 0 -21 -8z"/>
<path d="M3202 2263 c4 -86 22 -85 26 2 2 54 0 65 -13 65 -13 0 -15 -11 -13
-67z"/>
<path d="M3450 2080 c0 -29 4 -40 15 -40 8 0 15 8 15 18 0 9 3 27 6 40 5 18 2
22 -15 22 -18 0 -21 -6 -21 -40z"/>
<path d="M3600 2080 c0 -29 4 -40 15 -40 11 0 15 11 15 40 0 29 -4 40 -15 40
-11 0 -15 -11 -15 -40z"/>
<path d="M3750 2080 c0 -29 4 -40 15 -40 11 0 15 11 15 40 0 29 -4 40 -15 40
-11 0 -15 -11 -15 -40z"/>
<path d="M1490 2055 c0 -69 3 -85 15 -85 12 0 15 16 15 85 0 69 -3 85 -15 85
-12 0 -15 -16 -15 -85z"/>
<path d="M1577 2134 c-4 -4 -7 -43 -7 -86 0 -72 2 -78 20 -78 20 0 21 5 18 82
-3 75 -12 100 -31 82z"/>
<path d="M1657 2134 c-4 -4 -7 -43 -7 -86 0 -72 2 -78 20 -78 20 0 21 5 18 82
-3 75 -12 100 -31 82z"/>
<path d="M1740 2055 c0 -69 3 -85 15 -85 12 0 15 15 15 79 0 61 -3 80 -15 85
-13 4 -15 -8 -15 -79z"/>
<path d="M1820 2055 c0 -69 3 -85 15 -85 12 0 15 16 15 85 0 69 -3 85 -15 85
-12 0 -15 -16 -15 -85z"/>
<path d="M2701 1602 c-7 -13 -6 -19 2 -19 7 0 13 9 13 19 0 10 -1 18 -3 18 -1
0 -7 -8 -12 -18z"/>
<path d="M3289 1082 c-23 -20 -14 -38 11 -21 13 7 13 9 0 9 -9 1 -5 6 10 15
14 8 20 14 14 15 -7 0 -22 -8 -35 -18z"/>
<path d="M1788 1093 c6 -2 18 -2 25 0 6 3 1 5 -13 5 -14 0 -19 -2 -12 -5z"/>
<path d="M2430 3491 c0 -5 5 -11 12 -13 16 -6 1 -28 -19 -28 -9 0 -13 6 -9 15
14 36 -53 24 -73 -13 -5 -9 -12 -38 -16 -64 -9 -57 2 -61 59 -23 20 14 39 25
41 25 15 0 2 -57 -15 -68 -12 -7 -18 -17 -15 -22 9 -15 25 -12 25 5 0 8 5 15
10 15 6 0 10 -4 10 -9 0 -15 35 -19 48 -4 7 7 22 13 32 13 25 0 25 12 0 35
-33 30 -23 36 16 10 52 -35 67 -33 58 8 -4 17 -8 39 -9 48 -2 29 -29 59 -55
61 -19 2 -25 -2 -24 -14 1 -10 -2 -18 -7 -18 -5 0 -9 9 -9 19 0 19 -18 31 -46
31 -8 0 -14 -4 -14 -9z m40 -151 c0 -5 -5 -10 -11 -10 -5 0 -7 5 -4 10 3 6 8
10 11 10 2 0 4 -4 4 -10z"/>
<path d="M2195 3390 c-3 -5 3 -10 14 -10 12 0 21 -5 21 -12 0 -6 3 -8 6 -5 8
7 -14 37 -27 37 -4 0 -11 -4 -14 -10z"/>
<path d="M2682 3387 c-8 -10 -5 -13 16 -12 21 0 28 -5 30 -22 4 -27 8 -28 28
-8 13 13 13 15 1 15 -8 0 -22 9 -32 20 -21 23 -29 25 -43 7z"/>
<path d="M2170 3372 c0 -7 -7 -12 -15 -12 -13 0 -14 -2 -3 -14 11 -12 14 -11
21 7 4 11 5 22 2 25 -3 3 -5 0 -5 -6z"/>
<path d="M2506 3294 c-6 -15 -17 -16 -83 -10 l-76 6 47 -25 c57 -30 66 -31
117 -4 33 17 38 23 29 35 -16 18 -26 18 -34 -2z"/>
<path d="M2729 3303 c-1 -5 -1 -11 0 -15 0 -5 -3 -8 -9 -8 -5 0 -10 -7 -10
-16 0 -27 25 -9 26 19 1 24 -4 38 -7 20z"/>
<path d="M2170 3281 c0 -10 7 -22 16 -25 12 -5 15 -2 10 10 -3 8 -6 20 -6 25
0 5 -4 9 -10 9 -5 0 -10 -9 -10 -19z"/>
<path d="M2532 3235 c-18 -13 -37 -25 -42 -27 -5 -2 -12 -36 -14 -77 -5 -80
-8 -86 -30 -78 -12 5 -15 18 -12 54 7 80 -2 101 -47 123 -46 23 -50 24 -43 11
4 -5 2 -20 -3 -34 -7 -17 -4 -35 8 -63 l18 -39 -31 -2 c-96 -5 -136 -21 -136
-52 0 -13 -2 -13 -9 -2 -9 14 -31 7 -31 -11 0 -6 21 -8 60 -3 39 5 60 3 60 -3
0 -6 -12 -13 -27 -16 -16 -2 4 -2 42 2 101 9 242 8 299 -1 45 -8 49 -7 37 7
-20 24 -8 29 36 17 21 -6 49 -11 63 -11 l25 1 -25 19 c-14 11 -30 24 -37 30
-6 5 -30 12 -53 15 -80 10 -92 16 -85 39 6 16 15 130 11 125 -1 0 -16 -11 -34
-24z m-182 -153 c0 -14 -11 -21 -26 -15 -8 3 -11 9 -8 14 7 11 34 12 34 1z
m238 -3 c-2 -6 -8 -10 -13 -10 -5 0 -11 4 -13 10 -2 6 4 11 13 11 9 0 15 -5
13 -11z m92 -20 c0 -5 -7 -9 -15 -9 -15 0 -20 12 -9 23 8 8 24 -1 24 -14z
m-420 1 c0 -5 -7 -10 -15 -10 -8 0 -15 5 -15 10 0 6 7 10 15 10 8 0 15 -4 15
-10z m145 1 c7 -12 -12 -24 -25 -16 -11 7 -4 25 10 25 5 0 11 -4 15 -9z m129
-12 c-7 -11 -34 -12 -34 -1 0 14 11 21 26 15 8 -3 11 -9 8 -14z"/>
<path d="M2090 3215 c-7 -9 -8 -15 -2 -15 5 0 12 7 16 15 3 8 4 15 2 15 -2 0
-9 -7 -16 -15z"/>
<path d="M3070 3206 c0 -28 -44 -106 -59 -107 -11 0 -10 -3 4 -9 27 -12 47
-12 41 -1 -3 5 2 19 12 30 15 19 21 20 49 11 29 -11 31 -14 21 -36 -6 -13 -18
-24 -27 -24 -14 -1 -14 -2 -1 -9 23 -13 68 -24 51 -13 -11 8 -8 19 15 58 15
27 32 52 37 55 5 3 1 9 -8 13 -27 10 -32 7 -39 -19 -7 -28 -13 -29 -50 -15
-30 11 -32 22 -10 44 14 15 14 17 -3 23 -10 3 -21 8 -25 10 -5 2 -8 -3 -8 -11z"/>
<path d="M2266 3195 c-9 -26 -7 -32 5 -12 6 10 9 21 6 23 -2 3 -7 -2 -11 -11z"/>
<path d="M2633 3197 c4 -10 7 -22 7 -25 0 -4 10 -13 21 -21 21 -12 21 -12 -1
21 -30 43 -35 47 -27 25z"/>
<path d="M1840 3171 c0 -40 -14 -46 -48 -23 -24 18 -31 18 -57 7 -26 -12 -27
-13 -8 -14 55 -2 126 -62 108 -91 -3 -5 8 -4 25 2 25 8 28 12 17 22 -29 23
-35 48 -21 88 11 33 11 38 -1 38 -10 0 -15 -10 -15 -29z"/>
<path d="M2302 3187 c-7 -8 -7 -18 -2 -27 6 -8 10 -10 11 -5 0 6 2 18 4 28 4
20 1 21 -13 4z"/>
<path d="M2590 3186 c0 -9 5 -16 10 -16 6 0 10 4 10 9 0 6 -4 13 -10 16 -5 3
-10 -1 -10 -9z"/>
<path d="M2810 3170 c0 -5 5 -10 11 -10 5 0 7 5 4 10 -3 6 -8 10 -11 10 -2 0
-4 -4 -4 -10z"/>
<path d="M3262 3141 c5 -16 -55 -100 -72 -102 -8 0 6 -10 31 -22 96 -45 111
-50 118 -39 7 12 31 17 64 14 19 -2 23 -32 5 -50 -6 -6 -10 -13 -7 -15 72 -50
149 -95 153 -89 2 4 -9 14 -25 21 -16 7 -29 16 -29 21 0 9 95 91 101 87 2 -1
-5 6 -16 15 -11 10 -22 13 -24 7 -1 -6 -22 -28 -45 -49 -68 -65 -88 -49 -56
44 30 88 19 94 -71 41 -60 -35 -97 -45 -83 -24 4 7 0 9 -12 6 -11 -4 -29 0
-42 7 -23 12 -23 13 -4 35 16 21 21 22 41 11 15 -7 27 -8 33 -2 6 6 -2 12 -22
15 -27 6 -30 9 -20 27 13 24 28 25 57 5 12 -8 24 -11 27 -6 3 4 -16 17 -42 27
-26 11 -50 21 -55 22 -4 2 -6 -1 -5 -7z m181 -121 c-7 -26 -15 -31 -33 -19
-13 8 -12 12 4 24 27 20 35 19 29 -5z"/>
<path d="M1650 3120 c-12 -8 -11 -10 6 -10 28 0 38 -25 17 -41 -13 -11 -17
-10 -29 5 -7 10 -15 23 -17 29 -2 6 -12 5 -27 -4 -18 -9 -21 -14 -10 -16 18
-4 73 -80 73 -99 0 -17 -1 -17 33 1 16 8 22 15 14 15 -8 0 -23 12 -33 25 -18
24 -17 25 3 25 12 0 35 -7 52 -16 20 -10 39 -13 57 -8 l26 7 -25 7 c-14 3 -40
10 -57 14 -29 7 -32 12 -27 33 9 36 -23 54 -56 33z"/>
<path d="M1476 3031 c-3 -4 5 -36 18 -69 20 -51 22 -63 11 -72 -16 -13 -24
-10 -82 38 -24 19 -40 39 -37 44 3 5 -3 4 -15 -4 -26 -16 -26 -19 0 -69 11
-23 19 -43 17 -45 -2 -2 -29 6 -60 18 -52 19 -58 19 -79 4 -15 -10 -18 -16 -9
-16 8 0 37 -19 63 -41 38 -33 45 -44 36 -55 -6 -8 -15 -14 -20 -14 -15 0 -109
71 -109 82 0 6 -9 3 -21 -8 -15 -14 -17 -20 -7 -24 25 -10 108 -71 108 -79 0
-14 -27 -21 -76 -21 -37 0 -44 3 -44 19 0 18 -18 31 -42 31 -5 0 -23 -14 -39
-31 l-29 -32 57 -29 c32 -17 63 -36 69 -44 10 -12 13 -12 24 1 16 19 19 16
-57 55 -67 33 -76 45 -43 55 24 8 53 -12 46 -31 -3 -9 11 -13 49 -16 54 -3 54
-3 114 55 32 31 55 57 49 57 -11 0 -90 62 -85 67 2 2 34 -8 70 -21 37 -13 67
-20 67 -15 0 5 -11 32 -24 59 -26 54 -19 54 36 4 l33 -30 45 28 c24 15 39 28
33 28 -22 0 -27 42 -7 57 23 17 26 17 52 -7 18 -17 26 -19 42 -10 18 10 12 15
-55 50 -78 42 -90 46 -99 31z m45 -32 c11 -5 17 -14 14 -20 -10 -15 -23 -11
-35 11 -12 23 -7 25 21 9z"/>
<path d="M2508 3003 c7 -3 16 -2 19 1 4 3 -2 6 -13 5 -11 0 -14 -3 -6 -6z"/>
<path d="M2365 2980 c3 -5 42 -10 85 -10 43 0 82 5 85 10 4 6 -27 10 -85 10
-58 0 -89 -4 -85 -10z"/>
<path d="M3646 2931 c-3 -5 3 -11 14 -14 11 -3 20 -9 20 -15 0 -11 -89 -82
-102 -82 -13 0 0 -18 22 -30 15 -8 18 -7 15 2 -2 7 19 31 47 52 l51 40 17 -22
c10 -12 20 -18 24 -15 6 7 -19 30 -76 73 -15 11 -29 16 -32 11z"/>
<path d="M3773 2833 c7 -11 -86 -76 -110 -76 -18 0 -16 -11 7 -32 18 -16 20
-17 20 -1 0 9 11 22 25 28 22 10 29 9 48 -11 22 -22 22 -22 2 -34 -11 -7 -29
-14 -39 -17 -17 -5 -17 -7 9 -24 15 -10 25 -14 22 -9 -7 11 102 80 117 75 6
-2 2 6 -9 18 -11 12 -21 17 -23 11 -2 -6 -13 -16 -24 -22 -15 -8 -24 -7 -39 7
-25 23 -24 31 6 47 l26 13 -22 20 c-12 10 -19 14 -16 7z"/>
<path d="M3830 2671 c-48 -25 -52 -64 -10 -109 16 -18 30 -37 30 -42 0 -5 14
-4 32 1 24 7 36 5 47 -5 17 -18 7 -46 -19 -53 -16 -4 -18 -9 -9 -24 9 -17 15
-14 73 33 35 29 62 58 59 64 -3 9 -30 11 -96 8 -67 -4 -88 -3 -77 5 13 9 12
11 -5 11 -26 0 -45 18 -45 41 0 50 117 82 140 39 6 -11 8 -25 5 -30 -3 -6 1
-7 9 -4 14 5 14 9 -1 34 -29 51 -77 62 -133 31z m152 -157 c-22 -15 -42 -12
-42 7 0 5 15 9 32 9 32 0 32 0 10 -16z"/>
<path d="M1010 2620 c-33 -36 -38 -50 -15 -50 9 0 42 -13 74 -29 44 -22 61
-27 70 -18 14 14 15 31 1 22 -8 -5 -43 7 -58 20 -2 2 3 13 10 24 9 16 10 26 2
39 -19 29 -52 26 -84 -8z m55 -4 c11 -8 16 -19 12 -29 -5 -14 -11 -15 -34 -5
-38 16 -37 16 -23 33 15 18 21 19 45 1z"/>
<path d="M1066 2453 c2 -10 0 -24 -5 -32 -8 -12 -19 -11 -75 5 -36 10 -66 23
-66 29 0 5 -7 1 -15 -9 -14 -19 -12 -21 37 -33 29 -8 65 -20 80 -28 28 -13 29
-13 49 26 19 37 19 59 -1 59 -4 0 -6 -8 -4 -17z"/>
<path d="M4065 2442 c-16 -15 -125 -43 -137 -36 -6 4 -9 3 -6 -2 3 -5 8 -18
12 -29 4 -12 10 -15 14 -9 4 6 22 16 40 22 43 15 44 -7 2 -40 l-30 -24 23 -69
c13 -38 29 -71 35 -73 7 -2 5 9 -4 28 -18 36 -19 35 23 43 31 6 51 -12 37 -34
-3 -5 4 -9 15 -9 19 0 20 2 9 20 -11 17 -10 22 2 30 25 16 45 6 50 -25 3 -17
9 -25 12 -19 6 9 -8 79 -19 93 -1 2 -8 -1 -15 -7 -16 -13 -127 -34 -139 -26
-15 9 -10 25 20 59 19 22 32 30 39 23 5 -5 20 -8 33 -6 17 2 25 10 27 29 4 30
-28 75 -43 61z m35 -47 c0 -17 -31 -28 -54 -19 -24 9 -20 21 12 32 31 11 42 7
42 -13z"/>
<path d="M995 2349 c-22 -4 -64 -8 -92 -8 -73 -1 -69 -20 12 -66 36 -20 65
-41 65 -48 0 -7 4 -6 10 3 12 19 13 33 1 26 -5 -3 -19 2 -31 12 -32 26 -17 52
30 52 26 0 40 5 44 16 8 22 8 22 -39 13z m-57 -41 c-6 -18 -22 -20 -43 -3 -19
14 -18 14 13 15 22 0 32 -4 30 -12z"/>
<path d="M817 2225 c-3 -7 0 -12 6 -12 49 1 97 -4 97 -11 0 -5 -27 -17 -60
-27 -33 -10 -60 -22 -60 -26 0 -4 -2 -13 -5 -21 -4 -10 13 -13 72 -15 43 -1
79 -7 83 -13 5 -8 9 -6 14 5 8 23 8 27 -3 20 -14 -8 -124 6 -114 15 4 4 38 17
76 30 37 12 67 25 67 30 0 5 -26 11 -57 15 -32 4 -70 10 -85 15 -19 6 -28 5
-31 -5z"/>
<path d="M823 2080 c-48 -19 -56 -78 -15 -110 49 -39 152 -10 152 42 0 34 -19
57 -58 68 -43 12 -50 12 -79 0z m115 -44 c20 -19 4 -45 -33 -52 -86 -16 -151
37 -81 67 27 11 97 2 114 -15z"/>
<path d="M940 1929 c0 -7 -28 -9 -80 -7 -78 3 -80 3 -80 -21 0 -19 3 -21 15
-11 9 7 40 10 85 8 67 -3 70 -2 70 20 0 12 -2 22 -5 22 -3 0 -5 -5 -5 -11z"/>
<path d="M787 1863 c-2 -5 -2 -32 1 -60 3 -45 7 -53 24 -53 18 0 18 1 3 16 -9
9 -13 20 -8 24 13 13 142 17 147 5 2 -5 5 6 5 25 0 19 -3 30 -7 24 -4 -7 -40
-15 -81 -19 l-74 -7 5 26 c5 24 -5 37 -15 19z"/>
<path d="M888 1728 c-43 -21 -78 -42 -78 -47 0 -10 26 -17 105 -26 28 -4 58
-9 69 -12 12 -3 17 -1 14 7 -2 7 -19 14 -37 15 -57 5 -66 43 -14 60 21 7 28
15 24 26 -5 13 -18 9 -83 -23z m20 -46 c2 -8 -8 -12 -27 -12 -33 0 -42 16 -13
23 23 6 35 3 40 -11z"/>
<path d="M935 1604 c-27 -7 -60 -14 -73 -14 -15 0 -22 -5 -19 -12 5 -14 6 -14
77 9 l45 13 -47 -47 c-64 -65 -55 -81 32 -58 35 9 72 17 82 18 10 1 16 6 14
12 -2 5 -10 8 -17 6 -8 -2 -35 -9 -61 -16 -27 -7 -48 -10 -48 -6 0 4 20 27 45
51 65 64 61 70 -30 44z"/>
<path d="M995 1388 c-66 -38 -59 -115 12 -145 82 -34 175 21 157 93 -13 51
-115 83 -169 52z"/>
<path d="M3858 1384 c-27 -14 -45 -54 -39 -84 10 -52 92 -82 154 -57 64 27 77
89 26 131 -35 30 -97 35 -141 10z"/>
<path d="M3732 1191 c-10 -6 -10 -13 3 -37 l15 -29 -32 -3 c-18 -2 -34 1 -36
7 -2 7 -18 0 -37 -16 -18 -16 -45 -36 -59 -46 -57 -40 -15 -117 64 -117 26 0
45 8 64 25 25 23 28 45 5 45 -6 0 -7 -5 -4 -10 11 -18 -16 -40 -49 -40 -33 0
-86 42 -86 68 0 16 47 45 59 37 7 -3 8 0 5 9 -5 13 3 16 48 16 44 0 60 -5 81
-24 l27 -25 22 21 c15 12 17 18 7 15 -25 -8 -68 34 -76 75 -6 27 -12 35 -21
29z"/>
<path d="M1300 1148 c0 -18 -81 -78 -106 -78 -11 0 -2 -12 27 -36 37 -30 50
-34 82 -30 45 5 77 30 77 60 -1 23 -11 38 -53 75 -20 18 -27 21 -27 9z m50
-43 c17 -20 3 -53 -30 -70 -37 -19 -64 -19 -79 -1 -10 12 -4 21 36 50 55 41
56 41 73 21z"/>
<path d="M1395 1007 c-22 -21 -48 -41 -58 -45 -15 -7 -11 -12 25 -38 24 -17
50 -28 57 -26 8 3 1 10 -18 18 -37 15 -38 24 -10 50 21 19 21 18 39 -4 10 -12
21 -18 25 -13 3 6 -4 15 -15 21 -26 14 -25 26 1 41 17 9 25 7 45 -12 13 -12
24 -18 24 -12 0 6 -17 21 -37 35 l-38 24 -40 -39z"/>
<path d="M3497 1004 c-3 -3 10 -21 28 -40 39 -38 35 -40 -41 -18 -49 14 -56
14 -76 0 -16 -11 -18 -16 -7 -16 18 0 89 -70 89 -88 0 -10 5 -10 22 -1 22 12
22 12 3 19 -18 7 -85 70 -74 70 2 0 38 -9 78 -20 40 -12 76 -19 79 -16 2 3
-14 26 -37 52 -22 26 -41 51 -41 55 0 10 -14 12 -23 3z"/>
<path d="M1517 916 c-9 -35 -17 -69 -17 -75 0 -6 31 5 70 24 38 19 77 35 87
35 16 1 17 1 1 10 -12 7 -28 3 -60 -15 -23 -14 -47 -25 -51 -25 -10 0 1 61 14
74 8 9 -7 36 -20 36 -4 0 -15 -29 -24 -64z"/>
<path d="M3315 899 l-40 -21 43 -46 c23 -25 41 -51 38 -58 -3 -8 17 -3 49 13
30 15 51 31 48 36 -3 5 -8 5 -12 1 -3 -5 -16 -14 -27 -21 -19 -10 -25 -9 -40
8 -18 20 -18 21 0 35 10 7 23 11 27 8 5 -3 9 -1 9 4 0 19 -13 20 -37 5 -22
-15 -26 -15 -41 1 -16 16 -16 18 3 32 11 8 25 12 32 10 7 -3 13 -1 13 4 0 15
-20 11 -65 -11z"/>
<path d="M1671 869 c-7 -16 -25 -42 -40 -58 l-28 -30 50 -21 c35 -14 54 -17
61 -10 7 7 2 10 -14 10 -40 0 -54 14 -41 39 14 25 34 27 54 6 8 -8 17 -11 21
-8 12 12 6 21 -19 27 -28 7 -32 18 -12 34 14 12 57 5 57 -9 0 -5 5 -9 10 -9
25 0 6 19 -38 37 l-48 20 -13 -28z"/>
<path d="M3200 853 c-51 -19 -63 -63 -29 -107 24 -30 73 -35 119 -11 26 14 28
18 19 39 -8 16 -17 22 -30 19 -16 -5 -16 -7 -4 -20 21 -20 19 -30 -6 -38 -39
-13 -89 33 -89 80 0 19 37 38 61 32 10 -3 19 -1 19 4 0 10 -36 11 -60 2z"/>
<path d="M1796 800 c-10 -22 -27 -48 -36 -58 -17 -18 -16 -19 29 -35 50 -19
71 -21 71 -9 0 4 -12 8 -26 9 -44 2 -48 17 -19 67 15 25 32 46 38 47 10 0 -19
17 -33 18 -3 1 -14 -17 -24 -39z"/>
<path d="M3035 788 c-2 -7 -5 -41 -7 -76 -2 -51 0 -62 12 -60 8 2 14 15 15 33
0 25 5 31 27 33 17 2 31 -4 40 -17 10 -14 21 -18 36 -15 19 5 14 12 -41 60
-65 57 -75 62 -82 42z m36 -34 c10 -13 10 -17 -1 -24 -15 -9 -30 4 -30 28 0
17 15 15 31 -4z"/>
<path d="M1940 783 c-23 -9 -50 -46 -50 -70 0 -30 45 -63 87 -63 65 0 107 75
64 114 -20 18 -76 29 -101 19z m74 -19 c19 -19 19 -17 2 -59 -17 -41 -59 -57
-83 -32 -13 12 -13 21 -3 51 17 53 54 70 84 40z"/>
<path d="M2103 748 c3 -33 -16 -100 -31 -105 -13 -6 -13 -8 4 -14 29 -11 42
-10 41 4 -1 41 3 46 39 45 21 -1 42 5 52 16 16 16 16 18 -7 37 -13 10 -34 19
-46 19 -13 0 -30 3 -38 6 -9 3 -14 0 -14 -8z m75 -20 c15 -15 -3 -38 -29 -38
-20 0 -23 8 -13 34 7 19 25 21 42 4z"/>
<path d="M2833 747 c-39 -7 -53 -14 -52 -26 0 -10 2 -12 6 -3 2 6 15 12 27 12
18 0 25 -9 34 -39 7 -21 12 -46 12 -55 0 -11 9 -16 32 -16 27 0 29 2 17 13
-19 15 -43 93 -33 108 3 6 17 8 31 4 16 -4 22 -2 18 5 -7 12 -20 11 -92 -3z"/>
<path d="M58 675 c-42 -94 -58 -173 -58 -283 l0 -100 250 -141 c138 -77 253
-141 255 -141 3 0 5 24 5 53 1 69 23 191 50 273 12 36 20 67 19 68 -44 38
-153 105 -161 100 -6 -4 -8 -3 -5 3 8 13 -40 46 -53 38 -6 -4 -7 1 -3 11 4 11
3 15 -5 10 -9 -6 -119 46 -132 63 -5 6 -43 29 -97 57 -18 10 -34 24 -35 33 -2
9 -15 -11 -30 -44z"/>
<path d="M2243 673 c-2 -32 -8 -60 -15 -65 -9 -5 -6 -8 8 -8 12 0 22 6 21 13
-1 48 4 90 12 82 4 -6 16 -31 26 -57 10 -27 21 -48 24 -48 4 0 20 22 36 50 17
27 32 50 35 50 10 0 -2 -85 -12 -91 -6 -4 3 -8 18 -11 l29 -4 -3 53 c-3 32 1
60 8 68 10 13 8 15 -13 15 -18 0 -32 -12 -55 -47 -34 -53 -28 -56 -61 30 -7
18 -18 27 -33 27 -21 0 -23 -5 -25 -57z"/>
<path d="M2750 690 c4 -22 4 -40 1 -40 -4 0 -22 16 -41 35 -23 24 -43 35 -63
35 -15 0 -26 -4 -22 -9 14 -24 23 -106 12 -113 -7 -4 0 -8 17 -8 21 0 26 3 19
13 -14 16 -26 87 -16 87 5 0 29 -20 53 -45 51 -52 74 -58 66 -17 -3 15 -8 44
-12 65 -3 20 -10 37 -14 37 -4 0 -4 -18 0 -40z"/>
<path d="M4887 716 c-3 -8 -35 -30 -70 -50 -35 -20 -72 -45 -82 -56 -10 -11
-22 -17 -27 -14 -5 3 -14 1 -21 -4 -7 -6 -25 -12 -42 -15 l-30 -4 33 -2 c17 0
32 -5 32 -11 0 -5 -4 -10 -8 -10 -5 0 -57 -36 -117 -80 -59 -44 -117 -85 -127
-92 -19 -13 -19 -15 2 -93 12 -44 24 -124 27 -177 3 -54 9 -98 12 -98 4 0 45
22 91 48 47 26 165 93 262 147 204 115 191 93 158 256 -17 84 -76 269 -85 269
-2 0 -5 -6 -8 -14z"/>
<path d="M2479 711 c9 -6 12 -25 10 -65 l-4 -56 58 0 c31 0 57 3 57 8 0 4 -18
6 -40 4 -38 -4 -40 -3 -40 23 0 25 3 27 30 23 19 -3 30 0 30 7 0 7 -11 10 -30
7 -27 -4 -30 -2 -30 23 0 25 3 27 35 23 19 -2 35 0 35 4 0 4 -28 8 -62 8 -39
0 -58 -4 -49 -9z"/>
<path d="M1171 441 c-11 -7 -9 -10 10 -13 18 -2 24 -10 26 -30 1 -16 -2 -28
-8 -28 -5 0 -9 4 -9 10 0 5 -7 7 -15 4 -21 -8 -19 -18 7 -29 31 -14 33 -33 5
-44 -37 -14 -41 -28 -6 -23 24 4 29 1 29 -17 0 -12 6 -21 15 -21 12 0 15 15
15 76 0 61 4 80 18 91 13 11 13 14 2 10 -9 -3 -24 1 -35 9 -22 16 -34 17 -54
5z"/>
<path d="M3079 411 c-48 -45 -47 -71 1 -71 40 0 39 -18 -2 -22 -22 -2 -34 -9
-36 -20 -2 -10 2 -18 8 -18 6 0 8 5 5 10 -8 12 37 13 89 0 45 -10 84 5 110 42
15 21 14 24 -2 41 -15 14 -34 18 -85 18 -66 0 -89 11 -68 32 7 7 20 7 45 0 26
-8 38 -8 45 1 7 8 5 12 -7 12 -9 0 -27 4 -39 8 -18 6 -31 -1 -64 -33z m60 -47
c2 -2 -14 -4 -37 -4 -23 0 -42 4 -42 9 0 9 69 4 79 -5z m75 6 c31 -11 35 -45
7 -60 -24 -12 -34 -13 -27 -1 3 4 -9 8 -27 7 -17 0 -34 4 -37 9 -8 15 62 19
71 4 10 -17 23 -4 16 16 -4 9 -19 15 -37 15 -18 0 -29 4 -25 10 8 13 27 13 59
0z"/>
<path d="M1294 425 c11 -8 23 -15 28 -15 4 0 7 -24 7 -54 l-1 -53 -34 7 c-25
6 -34 4 -34 -5 0 -18 57 -24 80 -8 30 21 28 106 -2 127 -12 9 -32 16 -43 16
-20 -1 -20 -1 -1 -15z"/>
<path d="M2235 363 c0 -40 3 -73 8 -73 4 0 10 0 15 0 4 0 9 33 12 74 5 69 4
74 -15 72 -18 -1 -20 -8 -20 -73z"/>
<path d="M2390 429 c0 -5 5 -7 10 -4 6 3 10 8 10 11 0 2 -4 4 -10 4 -5 0 -10
-5 -10 -11z"/>
<path d="M2661 431 c-20 -13 -19 -130 0 -142 8 -4 21 -4 29 1 10 7 11 10 3 10
-8 0 -13 15 -13 39 0 22 6 42 13 45 10 5 10 7 0 12 -18 8 -16 24 2 24 8 0 15
5 15 10 0 12 -30 13 -49 1z"/>
<path d="M3680 429 c0 -5 5 -7 10 -4 6 3 10 8 10 11 0 2 -4 4 -10 4 -5 0 -10
-5 -10 -11z"/>
<path d="M3521 416 c-9 -10 -9 -20 -2 -34 5 -10 8 -32 6 -48 -3 -25 1 -32 24
-40 46 -18 71 1 71 52 0 47 -11 60 -37 45 -10 -6 -12 -11 -5 -11 7 0 12 -15
12 -40 0 -38 -1 -40 -21 -29 -16 8 -20 17 -16 38 4 17 0 36 -8 48 -8 11 -11
23 -8 27 3 3 4 6 1 6 -3 0 -11 -6 -17 -14z"/>
<path d="M1650 405 c-18 -22 -14 -96 7 -112 19 -15 40 -6 24 10 -17 17 -14 77
4 77 8 0 15 5 15 10 0 6 -6 10 -14 10 -8 0 -16 5 -18 11 -2 7 -9 5 -18 -6z"/>
<path d="M2190 405 c0 -13 -6 -16 -25 -11 -51 13 -87 -34 -50 -64 12 -10 19
-10 27 -2 17 17 28 15 28 -7 0 -14 -5 -18 -20 -14 -11 3 -28 2 -37 -2 -15 -7
-13 -9 12 -15 41 -8 75 8 75 36 0 25 -18 35 -49 27 -15 -4 -21 -1 -21 11 0 12
6 15 23 11 26 -7 67 28 48 40 -6 3 -11 -1 -11 -10z"/>
<path d="M1415 390 c-18 -7 -16 -8 10 -11 28 -4 30 -7 30 -44 0 -35 3 -40 25
-43 19 -3 22 -1 13 10 -6 7 -10 30 -9 50 2 30 -1 38 -18 42 -25 7 -26 7 -51
-4z"/>
<path d="M1539 396 c0 -3 -1 -27 -1 -53 -1 -46 0 -48 28 -51 17 -2 24 1 17 5
-6 5 -13 28 -15 52 -2 25 -9 46 -15 49 -7 2 -13 1 -14 -2z"/>
<path d="M1585 391 c-7 -12 12 -24 25 -16 11 7 4 25 -10 25 -5 0 -11 -4 -15
-9z"/>
<path d="M1729 396 c-2 -2 -2 -27 -1 -55 3 -40 8 -51 21 -51 13 0 16 9 15 44
-2 55 -17 80 -35 62z"/>
<path d="M1785 390 c-3 -5 -1 -10 4 -10 6 0 11 -19 11 -43 0 -47 5 -58 24 -51
14 5 8 96 -8 106 -15 10 -24 10 -31 -2z"/>
<path d="M1893 390 c-19 -8 -23 -17 -23 -54 0 -38 3 -44 24 -48 33 -7 56 8 27
17 -20 6 -30 25 -13 25 4 0 18 9 32 20 25 19 25 19 5 34 -23 18 -23 18 -52 6z
m32 -30 c0 -7 -6 -15 -12 -17 -8 -3 -13 4 -13 17 0 13 5 20 13 18 6 -3 12 -11
12 -18z"/>
<path d="M1999 396 c-10 -81 8 -126 41 -106 10 6 11 10 3 10 -7 0 -13 19 -15
47 -2 26 -9 48 -15 51 -7 2 -13 1 -14 -2z"/>
<path d="M2045 391 c-7 -12 12 -24 25 -16 11 7 4 25 -10 25 -5 0 -11 -4 -15
-9z"/>
<path d="M2299 393 c0 -4 0 -30 1 -56 1 -27 -4 -55 -12 -65 -12 -16 -11 -16
12 -1 21 14 25 24 25 69 0 34 -5 55 -12 58 -7 2 -13 0 -14 -5z"/>
<path d="M2369 396 c-2 -2 -2 -27 -1 -55 3 -40 8 -51 21 -51 14 0 16 8 11 52
-4 45 -17 68 -31 54z"/>
<path d="M2449 393 c-1 -5 0 -23 1 -42 1 -19 -4 -37 -12 -42 -10 -7 -10 -9 0
-9 6 0 12 -8 12 -19 0 -10 8 -21 19 -24 14 -3 17 0 13 15 -3 13 0 19 9 17 33
-5 49 13 49 56 0 45 -14 65 -32 47 -6 -6 -6 -12 1 -16 6 -4 11 -20 11 -37 0
-23 -4 -29 -21 -29 -17 0 -20 5 -18 33 2 18 0 38 -5 45 -8 13 -25 16 -27 5z"/>
<path d="M2748 389 c-12 -7 -18 -22 -18 -48 0 -46 28 -64 73 -49 23 9 27 15
27 49 0 33 -4 41 -26 49 -31 12 -34 12 -56 -1z m50 -53 c3 -33 1 -38 -13 -32
-9 3 -19 6 -21 6 -2 0 -4 16 -4 36 0 28 3 35 18 32 12 -2 18 -15 20 -42z"/>
<path d="M2869 396 c-3 -3 -3 -27 1 -53 4 -41 8 -48 30 -51 19 -3 22 -1 13 10
-6 7 -13 31 -15 52 -3 36 -16 54 -29 42z"/>
<path d="M2915 390 c-3 -6 1 -13 10 -16 19 -8 30 0 20 15 -8 14 -22 14 -30 1z"/>
<path d="M3318 388 c-9 -7 -18 -31 -20 -52 -2 -32 1 -40 18 -46 11 -5 27 -4
35 1 8 5 10 9 4 9 -5 0 -17 5 -25 10 -13 8 -12 11 5 25 16 12 17 14 3 9 -14
-5 -18 -1 -18 15 0 24 12 27 30 7 6 -8 18 -12 26 -9 13 5 12 8 -2 24 -20 22
-34 24 -56 7z"/>
<path d="M3419 396 c-10 -81 8 -126 41 -106 10 6 11 10 3 10 -7 0 -13 19 -15
47 -2 26 -9 48 -15 51 -7 2 -13 1 -14 -2z"/>
<path d="M3465 391 c-7 -12 12 -24 25 -16 11 7 4 25 -10 25 -5 0 -11 -4 -15
-9z"/>
<path d="M3665 393 c-12 -4 -4 -104 8 -103 4 0 10 0 15 0 11 0 8 99 -3 103 -5
2 -15 2 -20 0z"/>
<path d="M3752 388 c-7 -7 -12 -31 -12 -54 0 -32 4 -43 19 -47 25 -6 49 8 27
16 -11 4 -16 19 -16 42 0 22 4 34 10 30 6 -3 15 -3 21 1 8 4 7 9 -2 15 -19 12
-33 11 -47 -3z"/>
<path d="M3853 390 c-19 -8 -23 -17 -23 -54 0 -38 3 -44 24 -48 33 -7 56 8 27
17 -20 6 -30 25 -13 25 4 0 18 9 32 20 25 19 25 19 5 34 -23 18 -23 18 -52 6z
m32 -30 c0 -7 -6 -15 -12 -17 -8 -3 -13 4 -13 17 0 13 5 20 13 18 6 -3 12 -11
12 -18z"/>
<path d="M1398 335 c-13 -29 4 -58 28 -48 13 5 12 8 -2 24 -14 15 -14 21 -4
34 9 11 9 15 1 15 -6 0 -16 -11 -23 -25z"/>
</g>
</svg>
